<svg xmlns="http://www.w3.org/2000/svg" xmlns:xlink="http://www.w3.org/1999/xlink" width="160" height="33.563" viewBox="0 0 160 33.563">
  <defs>
    <clipPath id="clip-path">
      <rect id="Rechteck_546" data-name="Rechteck 546" width="27.978" height="33.563" transform="translate(0 0)" fill="#00e6c3"/>
    </clipPath>
  </defs>
  <g id="Gruppe_1457" data-name="Gruppe 1457" transform="translate(-156 -38.437)">
    <g id="Gruppe_13" data-name="Gruppe 13" transform="translate(2 -16)">
      <text id="flowbotic" transform="translate(196 81)" fill="#1b1b41" font-size="27" font-family="Inter-Bold, Inter" font-weight="700" letter-spacing="-0.033em"><tspan x="0" y="0">flowbotic</tspan></text>
    </g>
    <g id="Gruppe_1358" data-name="Gruppe 1358" transform="translate(156 38.437)">
      <g id="Gruppe_1357" data-name="Gruppe 1357" clip-path="url(#clip-path)">
        <path id="Pfad_705" data-name="Pfad 705" d="M22.83,7.918H17.773v-.4a1.362,1.362,0,0,0-1.362-1.362H14.649V3.737a1.935,1.935,0,1,0-1.319.032V6.158H11.568A1.362,1.362,0,0,0,10.206,7.52v.4H5.149A5.148,5.148,0,0,0,0,13.066V24.413a5.148,5.148,0,0,0,5.149,5.148H16.473l-.317,3.48a.478.478,0,0,0,.769.42l5.014-3.9h.891a5.148,5.148,0,0,0,5.148-5.148V13.066A5.148,5.148,0,0,0,22.83,7.918M9.551,23.162a.292.292,0,0,1,.287-.344H17.7a.292.292,0,0,1,.287.344c-.247,1.456-2.041,2.585-4.219,2.585S9.8,24.618,9.551,23.162M24.327,16.93a2.777,2.777,0,0,1-2.778,2.777H6.341A2.777,2.777,0,0,1,3.564,16.93V14.743a2.777,2.777,0,0,1,2.777-2.778H21.549a2.778,2.778,0,0,1,2.778,2.778Zm-13.483-.39a1.76,1.76,0,1,1-1.76-1.76,1.76,1.76,0,0,1,1.76,1.76m9.678,0a1.759,1.759,0,1,1-1.76-1.76,1.76,1.76,0,0,1,1.76,1.76" fill="#00e6c3"/>
      </g>
    </g>
  </g>
</svg>
